<!DOCTYPE svg PUBLIC "-//W3C//DTD SVG 1.1//EN" "http://www.w3.org/Graphics/SVG/1.1/DTD/svg11.dtd">
<!-- Uploaded to: SVG Repo, www.svgrepo.com, Transformed by: SVG Repo Mixer Tools -->
<svg fill="#002F75" height="152px" width="152px" version="1.1" id="Layer_1" xmlns="http://www.w3.org/2000/svg" xmlns:xlink="http://www.w3.org/1999/xlink" viewBox="-25.6 -25.6 563.20 563.20" xml:space="preserve" stroke="#002F75" stroke-width="0.0051200099999999995">
<g id="SVGRepo_bgCarrier" stroke-width="0"/>
<g id="SVGRepo_tracerCarrier" stroke-linecap="round" stroke-linejoin="round"/>
<g id="SVGRepo_iconCarrier"> <g> <g> <path d="M303.144,152.847c-0.039,0-0.078,0-0.115,0c0-0.039,0-0.076,0-0.114c0-25.932-21.097-47.029-47.029-47.029 s-47.029,21.097-47.029,47.029c0,0.038,0,0.076,0,0.114c-0.038,0-0.077,0-0.115,0c-25.932,0-47.029,21.097-47.029,47.029 c0,25.932,21.097,47.029,47.029,47.029c0.038,0,0.078,0,0.115,0c0,0.039,0,0.076,0,0.114c0,25.932,21.097,47.029,47.029,47.029 s47.029-21.096,47.029-47.029c0-0.039,0-0.076,0-0.114c0.038,0,0.077,0,0.115,0c25.932,0,47.029-21.097,47.029-47.029 C350.173,173.943,329.076,152.847,303.144,152.847z M303.145,216.525c-3.402,0-8.724-0.928-14.234-2.481l-26.095-7.357 l7.355,26.096c1.553,5.512,2.481,10.834,2.481,14.235c0,9.181-7.469,16.65-16.65,16.65c-9.181,0-16.65-7.468-16.65-16.65 c0-3.4,0.928-8.723,2.481-14.235l7.355-26.096l-26.095,7.357c-5.511,1.553-10.832,2.481-14.234,2.481 c-9.18,0-16.65-7.47-16.65-16.65c0-9.18,7.469-16.65,16.65-16.65c3.402,0,8.724,0.928,14.234,2.481l26.095,7.357l-7.355-26.096 c-1.553-5.512-2.481-10.834-2.481-14.235c0-9.181,7.469-16.65,16.65-16.65c9.181,0,16.65,7.469,16.65,16.65 c0,3.4-0.928,8.723-2.481,14.235l-7.355,26.096l26.095-7.357c5.511-1.553,10.832-2.481,14.234-2.481 c9.18,0,16.65,7.47,16.65,16.65S312.327,216.525,303.145,216.525z"/> </g> </g> <g> <g> <path d="M256.001,47.347c-84.104,0-152.528,68.424-152.528,152.529s68.424,152.529,152.528,152.529 s152.528-68.425,152.528-152.529C408.529,115.771,340.105,47.347,256.001,47.347z M256.001,322.026 c-67.353,0-122.15-54.798-122.15-122.15c0-67.354,54.797-122.15,122.149-122.15s122.15,54.797,122.15,122.15 S323.354,322.026,256.001,322.026z"/> </g> </g> <g> <g> <path d="M455.876,199.875C455.876,89.664,366.213,0,256.001,0S56.125,89.664,56.125,199.875 c0,53.616,21.224,102.364,55.707,138.297L62.295,457.763l77.797-2.64l53.143,56.877l46.76-112.89 c5.282,0.42,10.618,0.642,16.005,0.642c5.387,0,10.724-0.222,16.005-0.642l46.76,112.89l53.143-56.877l77.797,2.64 l-49.536-119.591C434.652,302.238,455.876,253.491,455.876,199.875z M183.223,456.789l-30.361-32.496l-44.447,1.509l27.417-66.192 c21.867,16.512,46.71,28.243,73.308,34.61L183.223,456.789z M280.573,367.586c-8.025,1.171-16.228,1.787-24.573,1.787 c-8.345,0-16.547-0.618-24.572-1.788c-0.603-0.087-1.207-0.175-1.808-0.269c-80.976-12.709-143.117-82.952-143.117-167.44 c0-93.461,76.037-169.497,169.498-169.497s169.497,76.036,169.497,169.497c0,84.488-62.14,154.732-143.117,167.442 C281.78,367.411,281.177,367.499,280.573,367.586z M403.587,425.802l-44.448-1.509l-30.361,32.496l-25.917-62.569 c26.597-6.367,51.441-18.098,73.308-34.61L403.587,425.802z"/> </g> </g> </g>
</svg>